<?xml version="1.0" encoding="UTF-8" standalone="no"?>
<!-- Created with Inkscape (http://www.inkscape.org/) -->

<svg
   version="1.1"
   id="svg1"
   width="396"
   height="396"
   viewBox="0 0 396 396"
   sodipodi:docname="icon.svg"
   inkscape:version="1.4.3 (0d15f75042, 2025-12-25)"
   xmlns:inkscape="http://www.inkscape.org/namespaces/inkscape"
   xmlns:sodipodi="http://sodipodi.sourceforge.net/DTD/sodipodi-0.dtd"
   xmlns="http://www.w3.org/2000/svg"
   xmlns:svg="http://www.w3.org/2000/svg">
  <defs
     id="defs1" />
  <sodipodi:namedview
     id="namedview1"
     pagecolor="#ffffff"
     bordercolor="#000000"
     borderopacity="0.25"
     inkscape:showpageshadow="2"
     inkscape:pageopacity="0.0"
     inkscape:pagecheckerboard="0"
     inkscape:deskcolor="#d1d1d1"
     showgrid="false"
     inkscape:zoom="1.9292929"
     inkscape:cx="197.74084"
     inkscape:cy="198"
     inkscape:window-width="1866"
     inkscape:window-height="1011"
     inkscape:window-x="0"
     inkscape:window-y="0"
     inkscape:window-maximized="1"
     inkscape:current-layer="g1" />
  <g
     inkscape:groupmode="layer"
     inkscape:label="Image"
     id="g1">
    <path
       style="fill:#bd7100;fill-opacity:1"
       d="m 162.27978,396 c -4.66166,-2.36188 -15.61094,-12.63648 -20.85301,-19.56808 -2.97345,-3.93179 -12.1976,-21.49978 -17.31198,-32.97178 -8.12614,-18.22762 -19.44476,-60.85806 -25.488552,-96 -1.19815,-6.96666 -2.74648,-15.22527 -3.44074,-18.35246 -0.69426,-3.1272 -1.26229,-8.49108 -1.26229,-11.91974 0,-3.42867 -0.58526,-9.57006 -1.30059,-13.64754 -5.40665,-30.81876 -5.99431,-42.24593 -6.01368,-116.93708 -0.0215,-83.0944409 -0.85669,-76.8205135 10.81944,-81.2796683 6.724292,-2.5680282 20.628442,-1.9716908 23.477812,1.0069435 6.16561,6.4453138 6.21014,6.7035728 8.93133,51.7962148 0.73019,12.1 2.29275,36.1 3.47234,53.33333 1.1796,17.23334 2.67895,39.43334 3.33191,49.33334 2.61266,39.61301 4.56893,60.33744 9.31357,98.66666 2.60524,21.04619 4.54461,32.00271 9.20436,52 4.47698,19.21302 12.24149,32 19.43102,32 3.43844,0 9.99916,-7.24835 9.99916,-11.04716 0,-1.17084 0.53083,-2.45686 1.17961,-2.85783 0.64878,-0.40097 1.50644,-2.38638 1.9059,-4.41202 0.39946,-2.02564 1.69585,-7.28299 2.88087,-11.68299 1.18502,-4.4 2.6791,-11 3.32018,-14.66666 0.64109,-3.66667 1.79097,-10.26667 2.55529,-14.66667 0.76432,-4.4 2.35714,-13.4 3.5396,-20 2.04012,-11.38711 2.63016,-15.21367 5.75668,-37.33333 0.72557,-5.13334 2.30953,-15.33334 3.51991,-22.66667 1.21039,-7.33333 2.73633,-16.93333 3.39099,-21.33333 0.65466,-4.4 1.73128,-11.62482 2.39249,-16.05514 0.6612,-4.43033 1.56915,-9.23033 2.01765,-10.66667 0.4485,-1.43634 1.48442,-6.81153 2.30204,-11.94486 3.15053,-19.78021 5.47919,-32.35592 8.51788,-46 1.22491,-5.5 2.7554,-12.4 3.4011,-15.333333 2.30854,-10.487429 3.70714,-16.116388 5.96314,-24 1.25912,-4.4 2.57466,-9.5 2.92342,-11.333334 0.34877,-1.833333 1.11837,-4.533333 1.71024,-6 0.59187,-1.466666 2.71895,-7.766666 4.72685,-14 4.40225,-13.666334 7.0138,-17.5878623 14.7204,-22.1042269 5.607,-3.2859245 6.65177,-3.4270572 22.2462,-3.0051438 18.35468,0.4965927 22.95232,2.0007147 31.51662,10.3106847 8.38526,8.136239 8.43885,8.425238 7.70581,41.553406 -0.36404,16.451571 -1.24332,33.811947 -1.95397,38.578614 -2.19769,14.740923 -4.2105,26.674403 -5.47472,32.458343 -0.66619,3.04791 -1.86067,8.99166 -2.65439,13.20832 -3.274,17.39332 -4.4745,23.20042 -5.58171,27 -1.07584,3.69195 -2.21156,8.70883 -5.13129,22.66667 -0.61361,2.93333 -2.14339,8.93333 -3.39953,13.33333 -4.50386,15.77608 -4.92126,17.39137 -5.60197,21.67903 -0.37946,2.39013 -1.22363,4.67554 -1.87594,5.07869 -0.65231,0.40315 -1.18601,1.79185 -1.18601,3.086 0,2.20865 -12.00676,40.35017 -14.52978,46.15628 -0.63733,1.46667 -2.79708,6.86667 -4.79945,12 -11.43901,29.32538 -23.53292,53.4634 -35.0722,70 -10.09901,14.4726 -19.72277,24.67881 -29.7068,31.50473 -9.50042,6.49527 -9.50042,6.49527 -24.36276,6.85708 -11.66258,0.28392 -15.79028,-0.10834 -19.17245,-1.82195 z"
       id="path1141" />
  </g>
</svg>
