<?xml version="1.0" encoding="UTF-8" standalone="no"?>
<!-- Created with Inkscape (http://www.inkscape.org/) -->

<svg
   version="1.1"
   id="svg1"
   width="237.33333"
   height="396"
   viewBox="0 0 237.33333 396"
   sodipodi:docname="V-Logo-Verapax-nobackground-cropped-2026.svg"
   inkscape:version="1.4.3 (0d15f75042, 2025-12-25)"
   xmlns:inkscape="http://www.inkscape.org/namespaces/inkscape"
   xmlns:sodipodi="http://sodipodi.sourceforge.net/DTD/sodipodi-0.dtd"
   xmlns="http://www.w3.org/2000/svg"
   xmlns:svg="http://www.w3.org/2000/svg">
  <defs
     id="defs1" />
  <sodipodi:namedview
     id="namedview1"
     pagecolor="#ffffff"
     bordercolor="#000000"
     borderopacity="0.25"
     inkscape:showpageshadow="2"
     inkscape:pageopacity="0.0"
     inkscape:pagecheckerboard="0"
     inkscape:deskcolor="#d1d1d1"
     showgrid="false"
     inkscape:zoom="1.9292929"
     inkscape:cx="118.69634"
     inkscape:cy="198"
     inkscape:window-width="1866"
     inkscape:window-height="1011"
     inkscape:window-x="0"
     inkscape:window-y="0"
     inkscape:window-maximized="1"
     inkscape:current-layer="g1" />
  <g
     inkscape:groupmode="layer"
     inkscape:label="Image"
     id="g1">
    <g
       id="g2">
      <path
         style="fill:#fdfcfa"
         d="m 0.22413748,275.66667 c 0.12327561,-66.18334 0.40324984,-117.93334 0.62216495,-115 C 1.0652175,163.6 1.8548755,171.4 2.6010979,178 c 0.7462224,6.6 2.2716907,19.5 3.3899296,28.66667 1.1182389,9.16666 2.6510947,20.56666 3.4063463,25.33333 0.7552512,4.76667 2.0066772,12.26667 2.7809462,16.66667 0.774268,4.4 2.62251,13.7 4.107204,20.66666 C 17.770218,276.3 19.51335,284.25 20.15915,287 c 0.645801,2.75 1.712308,7.25 2.370017,10 0.65771,2.75 2.806906,10.1 4.775994,16.33333 1.969087,6.23334 4.0577,12.83334 4.641362,14.66667 0.583663,1.83333 3.412415,8.75743 6.286117,15.38687 2.873702,6.62945 7.398359,15.94003 10.054793,20.69018 2.656435,4.75015 7.361169,11.8158 10.454964,15.70144 3.093795,3.88564 8.68439,9.12506 12.423544,11.64316 L 77.964403,396 H 38.982201 0 Z M 112,395.04884 c 1.1,-0.40734 5.68542,-3.3442 10.18982,-6.52636 4.5044,-3.18215 11.43907,-9.5515 15.41038,-14.1541 3.97132,-4.60261 9.51076,-11.62397 12.30987,-15.60302 2.79912,-3.97905 6.83954,-10.27905 8.97873,-14 2.13918,-3.72095 6.8063,-12.76536 10.37137,-20.09869 3.56506,-7.33334 7.75503,-16.20885 9.31103,-19.72337 1.55601,-3.51452 3.77969,-8.91452 4.94152,-12 1.16184,-3.08548 2.89402,-7.40997 3.8493,-9.60997 0.95527,-2.2 4.86942,-13.3 8.6981,-24.66666 C 199.8888,247.3 203.4908,236.2 204.06456,234 c 0.57377,-2.2 2.34038,-8.5 3.9258,-14 1.58542,-5.5 4.67239,-16.9 6.85992,-25.33333 2.18753,-8.43334 4.60163,-18.33334 5.36466,-22 0.76304,-3.66667 1.85173,-8.76667 2.41933,-11.33334 0.56759,-2.56666 2.29851,-10.96666 3.84648,-18.66666 1.54797,-7.7 3.38975,-17 4.09283,-20.66667 0.70309,-3.66667 1.95962,-10.86667 2.7923,-16 0.83268,-5.13333 1.99542,-12.333333 2.58388,-16 0.58845,-3.666667 1.14049,63.68333 1.22674,149.66667 L 237.33333,396 173.66666,395.89474 C 138.65,395.83684 110.9,395.45619 112,395.04884 Z M 83.296673,338.13229 c -1.446504,-1.02725 -3.59589,-3.87725 -4.776412,-6.33334 -1.180522,-2.45609 -2.787679,-5.96562 -3.57146,-7.79895 -0.78378,-1.83333 -2.299606,-6.33333 -3.368501,-10 -1.068895,-3.66667 -2.593746,-9.96667 -3.388558,-14 -0.794811,-4.03333 -2.037049,-10.33333 -2.760529,-14 -0.72348,-3.66667 -2.193843,-12.96667 -3.267474,-20.66667 -1.073631,-7.7 -2.583456,-19.4 -3.355166,-26 -0.771709,-6.6 -2.036464,-18.6 -2.810565,-26.66666 C 55.223907,204.6 53.979814,190.2 53.233357,180.66667 52.4869,171.13333 51.28565,154.63333 50.563913,144 49.842176,133.36667 48.690457,114.76667 48.004538,102.66667 47.318619,90.566667 46.137245,70.466667 45.379263,58 44.62128,45.533333 43.318774,29.633333 42.484804,22.666667 41.484031,14.306583 40.097332,8.7594428 38.4062,6.3512318 36.996937,4.3444093 33.929026,2.1485222 31.588619,1.4714828 28.852736,0.68003932 54.184463,0.19756489 102.53338,0.12025102 L 177.73343,0 l -5.2771,3.8227168 c -3.24154,2.3481566 -6.63085,6.5912552 -8.7866,11.0000002 C 161.73951,18.770223 158.33982,28 156.11487,35.333333 153.88991,42.666667 151.50609,51.066667 150.81748,54 c -0.6886,2.933333 -2.12195,8.633333 -3.18522,12.666667 C 146.56899,70.7 144.75361,78.2 143.59808,83.333333 c -1.15552,5.133334 -2.78544,12.933334 -3.62203,17.333337 -0.83659,4.4 -2.06138,10.4 -2.72176,13.33333 -0.66037,2.93333 -1.85001,8.93333 -2.64364,13.33333 -0.79363,4.4 -1.9845,11.3 -2.64636,15.33334 C 131.30242,146.7 130.17955,153.6 129.46902,158 c -0.71054,4.4 -2.52854,15.5 -4.04,24.66667 -1.51147,9.16666 -3.35074,20.56666 -4.08728,25.33333 -0.73654,4.76667 -2.24677,14.66667 -3.35607,22 -1.10931,7.33333 -2.63327,17.23333 -3.38658,22 -0.75331,4.76667 -1.97606,12.26667 -2.71723,16.66667 -0.74116,4.4 -2.24204,12.8 -3.33528,18.66666 C 107.45333,293.2 105.94523,300.7 105.19524,304 c -0.74998,3.3 -2.00346,8.4 -2.78549,11.33333 -0.78204,2.93334 -2.35149,8.03334 -3.487675,11.33334 -1.136185,3.3 -3.199312,7.65 -4.584726,9.66666 C 92.871638,338.46688 90.58668,340 88.872547,340 c -1.620226,0 -4.129369,-0.84047 -5.575874,-1.86771 z M 230.93794,11.114757 c -3.1508,-3.2820535 -8.2508,-7.1123547 -11.33333,-8.5117807 L 214,0.05856533 225.66666,0.02928267 237.33333,0 v 8.6666667 c 0,4.7666663 -0.15,8.6101453 -0.33334,8.5410633 -0.18333,-0.06908 -2.91125,-2.81092 -6.06205,-6.092973 z M 0.04054491,5.6666667 0,0 8.9999998,0.13648197 C 15.742672,0.23873234 16.989747,0.51524626 13.972104,1.2389475 11.756762,1.7702384 8.292861,3.2869356 6.2745471,4.6093857 4.2562331,5.9318358 2.0370314,7.9857263 1.3429876,9.1735869 0.4057405,10.777692 0.07065877,9.87546 0.04054491,5.6666667 Z"
         id="path3" />
      <path
         style="fill:#bc7000"
         d="M 71.183739,391.48406 C 67.434796,388.93164 61.836192,383.66413 58.742397,379.77849 55.648602,375.89285 50.943868,368.8272 48.287433,364.07705 45.630999,359.3269 41.106342,350.01632 38.23264,343.38687 35.358938,336.75743 32.530186,329.83333 31.946523,328 31.362861,326.16667 29.274248,319.56667 27.305161,313.33333 25.336073,307.1 23.159447,299.6 22.468213,296.66667 c -0.691234,-2.93334 -1.757741,-7.43334 -2.370017,-10 C 19.485921,284.1 17.770218,276.3 16.285524,269.33333 c -1.484694,-6.96666 -3.327362,-16.26666 -4.094818,-20.66666 -0.767456,-4.4 -1.98674,-11.6 -2.7095194,-16 -0.7227794,-4.4 -2.2690609,-16.1 -3.4361811,-26 C 4.8778853,196.76667 3.2557848,184.76667 2.4403377,180 1.5212266,174.62737 0.73078812,141.52038 0.36068006,92.89493 0.03231546,49.753809 0.12797727,13.004946 0.57326187,11.230791 1.0185465,9.4566355 3.6217244,6.5357655 6.3581017,4.7399686 9.0944789,2.9441716 14.348552,1.0836153 18.03382,0.60539909 21.806653,0.11582013 27.166178,0.39074968 30.300098,1.234627 c 3.423884,0.921956 6.547621,2.8969424 8.117095,5.1320424 1.67869,2.3906356 3.06992,7.9656656 4.067611,16.2999976 0.83397,6.966666 2.136476,22.866666 2.894459,35.333333 0.757982,12.466667 1.939356,32.566667 2.625275,44.66667 0.685919,12.1 1.837638,30.7 2.559375,41.33333 0.721737,10.63333 1.922987,27.13333 2.669444,36.66667 0.746457,9.53333 1.99055,23.93333 2.764651,32 0.774101,8.06666 2.038856,20.06666 2.810565,26.66666 0.77171,6.6 2.281535,18.3 3.355166,26 1.073631,7.7 2.543994,17 3.267474,20.66667 0.72348,3.66667 1.965718,9.96667 2.760529,14 0.794812,4.03333 2.319663,10.33333 3.388558,14 1.068895,3.66667 2.584721,8.16667 3.368501,10 0.783781,1.83333 2.390938,5.34286 3.57146,7.79895 1.180522,2.45609 3.329908,5.30609 4.776412,6.33334 1.446505,1.02724 3.955648,1.86771 5.575874,1.86771 1.714133,0 3.999091,-1.53312 5.464802,-3.66667 1.385414,-2.01666 3.448541,-6.36666 4.584726,-9.66666 1.136185,-3.3 2.705635,-8.4 3.487675,-11.33334 C 103.19178,312.4 104.44526,307.3 105.19524,304 c 0.74999,-3.3 2.25809,-10.8 3.35134,-16.66667 1.09324,-5.86666 2.60778,-14.26666 3.36564,-18.66666 0.75786,-4.4 2.29468,-14 3.41515,-21.33334 1.12046,-7.33333 2.61651,-17.08591 3.32455,-21.67239 0.70804,-4.58649 1.90421,-12.38649 2.65816,-17.33334 0.75395,-4.94685 2.60747,-16.49427 4.11894,-25.66093 1.51146,-9.16667 3.30826,-20.11667 3.99288,-24.33334 0.68462,-4.21666 1.80749,-11.11666 2.49527,-15.33333 0.68778,-4.21667 1.89985,-11.26667 2.69348,-15.66667 0.79363,-4.4 1.98327,-10.4 2.64364,-13.33333 0.66038,-2.93333 1.88517,-8.93333 2.72176,-13.33333 0.83659,-4.400003 2.46651,-12.200003 3.62203,-17.333337 C 144.75361,78.2 146.56899,70.7 147.63226,66.666667 148.69553,62.633333 150.12888,56.933333 150.81748,54 c 0.68861,-2.933333 3.07243,-11.333333 5.29739,-18.666667 2.22495,-7.333333 5.62464,-16.56311 7.55486,-20.510616 2.15575,-4.408745 5.54506,-8.6518436 8.7866,-11.0000002 5.19936,-3.76639736 5.54426,-3.82228538338 23.41038,-3.79343413 14.96137,0.02416048 19.11498,0.47494796 23.74545,2.57707533 3.08669,1.401286 8.33669,5.2723193 11.66666,8.602296 l 6.05451,6.054504 -0.0239,31.701754 c -0.0158,20.999493 -0.67091,35.75286 -1.94043,43.701755 -1.05408,6.6 -2.26604,14.400003 -2.69324,17.333333 -0.4272,2.93333 -1.36257,8.33333 -2.07861,12 -0.71604,3.66667 -2.56841,12.96667 -4.11638,20.66667 -1.54797,7.7 -3.27889,16.1 -3.84648,18.66666 -0.5676,2.56667 -1.65629,7.66667 -2.41933,11.33334 -0.76303,3.66666 -3.17713,13.56666 -5.36466,22 C 212.66275,203.1 209.57578,214.5 207.99036,220 c -1.58542,5.5 -3.35203,11.8 -3.9258,14 -0.57376,2.2 -4.17576,13.3 -8.00444,24.66667 -3.82868,11.36666 -7.74283,22.46666 -8.6981,24.66666 -0.95528,2.2 -2.68746,6.52449 -3.8493,9.60997 -1.16183,3.08548 -3.38551,8.48548 -4.94152,12 -1.556,3.51452 -5.74597,12.39003 -9.31103,19.72337 -3.56507,7.33333 -8.23219,16.37774 -10.37137,20.09869 -2.13919,3.72095 -6.17961,10.02095 -8.97873,14 -2.79911,3.97905 -8.33855,11.00041 -12.30987,15.60302 -3.97131,4.6026 -11.18972,11.2026 -16.04091,14.66666 l -8.82034,6.29829 -17.369478,0.39574 -17.369474,0.39574 z"
         id="path2" />
    </g>
  </g>
</svg>
