<svg xmlns="http://www.w3.org/2000/svg" xmlns:xlink="http://www.w3.org/1999/xlink" width="161" height="52" viewBox="0 0 161 52">
  <defs>
    <polygon id="issofbc-logo-a" points="17.927 .166 17.927 24.722 .456 24.722 .456 .166"/>
  </defs>
  <g fill="none" fill-rule="evenodd">
    <path fill="#B32539" fill-rule="nonzero" d="M63.4929577,20.8267606 C63.268951,22.1523538 62.7880559,25.8282198 62.0451345,31.8602589 C61.5899282,35.9845451 61.2837172,40.0222941 61.1316392,43.9676056 L55.9342723,43.9676056 C56.2055465,42.2948801 56.7388469,38.2561477 57.5300633,31.8602589 C58.0037656,27.5363469 58.2565438,23.8585141 58.2935357,20.8267606 L63.4929577,20.8267606 Z M81.6338028,21.4257592 L80.5924688,25.4609598 C79.1545291,24.8659813 77.5602917,24.5705021 75.8038953,24.5705021 C72.9709978,24.5705021 71.5516185,25.4509095 71.5516185,27.2207695 C71.5516185,27.912231 71.8583529,28.5062045 72.4727986,29.0177654 C73.0110491,29.4780698 74.0650823,30.0660131 75.630014,30.7755651 C79.254169,32.4398969 81.0701539,34.8057405 81.0701539,37.8841513 C81.0701539,42.9665945 77.6736076,45.5103286 70.8824686,45.5103286 C68.7499806,45.5103286 66.7894202,45.231935 65.0046948,44.6741426 L66.2541003,40.6258766 C67.9890058,41.3032677 69.6584615,41.6439733 71.2722362,41.6439733 C72.8000471,41.6439733 73.9332061,41.5213595 74.6570602,41.281157 C75.9553087,40.8560288 76.6039446,40.0349183 76.6039446,38.8107902 C76.6039446,38.0097802 76.2503208,37.2972131 75.5430733,36.6640434 C74.9061598,36.0982108 73.7407644,35.4017241 72.0449334,34.5755884 C68.7949162,32.9906541 67.1762573,30.7866205 67.1762573,27.9695178 C67.1762573,25.4488994 68.015381,23.6267777 69.7004666,22.5031527 C71.3835984,21.3905831 73.5434385,20.8267606 76.1751025,20.8267606 C78.3681559,20.8267606 80.183164,21.0277668 81.6338028,21.4257592 Z M100.530516,21.4257592 L99.4846053,25.4609598 C98.0519707,24.8659813 96.4562483,24.5705021 94.7042739,24.5705021 C91.8692785,24.5705021 90.4522692,25.4509095 90.4522692,27.2207695 C90.4522692,27.912231 90.7589135,28.5062045 91.3682959,29.0177654 C91.9073649,29.4780698 92.9610887,30.0660131 94.5294671,30.7755651 C98.1535345,32.4398969 99.9641033,34.8057405 99.9641033,37.8841513 C99.9641033,42.9665945 96.5695309,45.5103286 89.780386,45.5103286 C87.6495008,45.5103286 85.6895161,45.231935 83.9014085,44.6741426 L85.1563065,40.6258766 C86.8858197,41.3032677 88.5586915,41.6439733 90.1710158,41.6439733 C91.698378,41.6439733 92.8253448,41.5213595 93.556799,41.281157 C94.8478303,40.8560288 95.4992054,40.0349183 95.4992054,38.8107902 C95.4992054,38.0097802 95.1447089,37.2972131 94.4386457,36.6640434 C93.8087552,36.0982108 92.6417489,35.4017241 90.9425095,34.5755884 C87.7002827,32.9906541 86.0742864,30.7866205 86.0742864,27.9695178 C86.0742864,25.4488994 86.9141403,23.6267777 88.5909185,22.5031527 C90.2774624,21.3905831 92.4386214,20.8267606 95.073419,20.8267606 C97.2628987,20.8267606 99.079327,21.0277668 100.530516,21.4257592 Z M113.380282,38.1606337 C113.380282,39.9831272 112.775963,41.5365858 111.564304,42.8181169 C110.342572,44.099648 108.788466,44.7389671 106.885869,44.7389671 C105.558382,44.7389671 104.421255,44.2712903 103.469453,43.3417222 C102.518658,42.4179398 102.042254,41.1836585 102.042254,39.6504498 C102.042254,37.8395277 102.649594,36.3024619 103.86226,35.0508235 C105.086006,33.7953281 106.646156,33.1685446 108.55681,33.1685446 C109.894369,33.1685446 111.029481,33.6159716 111.965168,34.5117898 C112.90992,35.4172508 113.380282,36.6322464 113.380282,38.1606337 Z M110.423148,38.4094185 C110.423148,37.4837076 110.21063,36.7219246 109.79365,36.1317839 C109.374655,35.5368218 108.807603,35.2407871 108.08947,35.2407871 C107.17292,35.2407871 106.424572,35.6862855 105.845433,36.5724609 C105.277374,37.457672 104.990322,38.4393113 104.990322,39.5087003 C104.990322,40.4373041 105.201834,41.1942656 105.619821,41.7911563 C106.044858,42.3793685 106.61594,42.6802246 107.34213,42.6802246 C108.284867,42.6802246 109.036237,42.2356905 109.590196,41.3601222 C110.146169,40.4826254 110.423148,39.4971289 110.423148,38.4094185 Z M123.206573,27.9310368 L122.713211,29.890039 C122.305258,29.8537067 121.87319,29.8340675 121.435092,29.8340675 C120.905557,29.8340675 120.509662,30.0874122 120.253435,30.5872278 C119.997209,31.0919532 119.788208,32.0621257 119.631458,33.5095288 C120.297647,33.5095288 121.205995,33.4810521 122.366551,33.416243 L122.043002,35.6904531 C120.908572,35.647247 120.035391,35.6207342 119.415424,35.6207342 C119.242596,38.0540212 119.01149,40.8447401 118.723109,43.9879812 C118.434729,47.1302404 117.121442,48.925256 114.764157,49.3671362 L114.13615,47.7596742 C114.74406,47.3011007 115.194215,46.6225691 115.483601,45.7181877 C115.773991,44.8098784 116.027203,43.3781865 116.245247,41.4162385 C116.458267,39.4542904 116.646166,37.5237649 116.810955,35.6207342 C116.371853,35.6207342 115.72576,35.647247 114.870667,35.6904531 L115.209288,33.4299904 C115.976963,33.483998 116.589897,33.5095288 117.041057,33.5095288 C117.456043,29.6838283 118.912014,27.7690141 121.406958,27.7690141 C122.15956,27.7690141 122.753403,27.8249856 123.206573,27.9310368 Z M141.347418,36.9830039 C141.347418,42.1526393 137.368058,44.7389671 129.396355,44.7389671 C128.110854,44.7389671 126.046261,44.6997041 123.206573,44.6302387 C123.443297,42.9620623 123.943713,38.8354146 124.699831,32.2351946 C125.160294,27.8196111 125.414997,24.0574052 125.478923,20.939516 L128.43947,20.939516 C128.957866,20.939516 129.872799,20.9183744 131.186267,20.8811248 C132.494741,20.8438752 133.503565,20.8267606 134.201751,20.8267606 C136.364229,20.8267606 138.089217,21.2385193 139.360735,22.0580097 C140.635248,22.8724663 141.275502,24.0876075 141.275502,25.6863185 C141.275502,27.046431 140.85699,28.2555317 140.022962,29.3277151 C139.183941,30.3918445 138.114188,31.0915323 136.803716,31.4197312 L136.779744,31.6935658 C137.983341,31.8969283 139.045103,32.4415773 139.96503,33.3295264 C140.887954,34.2154619 141.347418,35.4316099 141.347418,36.9830039 Z M136.703833,37.2397238 C136.703833,35.1315999 134.825024,34.0704907 131.056419,34.0704907 C130.278326,34.0704907 129.534194,34.1077402 128.83401,34.1610977 C128.573314,36.6950748 128.37155,39.0387771 128.238705,41.1750899 C128.748111,41.2677105 129.382371,41.3150275 130.15447,41.3150275 C132.499736,41.3150275 134.183772,40.9878354 135.193594,40.3284174 C136.20042,39.6810804 136.703833,38.6421196 136.703833,37.2397238 Z M136.510059,27.0111949 C136.510059,25.1668381 135.329436,24.2466732 132.968189,24.2466732 C131.790563,24.2466732 130.692843,24.338287 129.685018,24.5215146 C129.685018,25.0208601 129.52021,27.1209301 129.17761,30.8327988 C129.721975,30.8579675 130.236375,30.8750821 130.713818,30.8750821 C134.578312,30.8750821 136.510059,29.5824216 136.510059,27.0111949 Z"/>
    <g transform="translate(142.86 20.827)">
      <mask id="issofbc-logo-b" fill="#fff">
        <use xlink:href="#issofbc-logo-a"/>
      </mask>
      <path fill="#B32539" fill-rule="nonzero" d="M17.9273122,0.675220191 L16.8989332,4.88453991 C15.6060001,4.42255371 14.3419094,4.19357801 13.1126285,4.19357801 C10.7028002,4.19357801 8.81014517,5.08728931 7.44162528,6.89085118 C6.06514888,8.68836082 5.3788998,10.8338732 5.3788998,13.3273882 C5.3788998,15.3922043 5.95674141,17.1423049 7.11540833,18.5595333 C8.27208611,19.9818052 9.94792624,20.6919325 12.1538689,20.6919325 C13.5711224,20.6919325 15.1445225,20.4276522 16.8830201,19.9101873 L16.1460483,24.1003416 C14.2354911,24.5179449 12.6213139,24.721703 11.2935712,24.721703 C7.67335866,24.721703 4.96416667,23.6585295 3.15903323,21.537226 C1.35489437,19.4159226 0.455808624,16.8669288 0.455808624,13.8912535 C0.455808624,10.0279191 1.74675253,6.77081546 4.33460773,4.12902099 C6.92246294,1.4842004 10.153801,0.165824922 14.0246436,0.165824922 C15.4180276,0.165824922 16.7149388,0.334278407 17.9273122,0.675220191" mask="url(#issofbc-logo-b)"/>
    </g>
    <path fill="#B32539" fill-rule="nonzero" d="M17.339089,45.2475236 C14.2733899,46.105056 10.9981787,46.3573301 10.5898735,45.3392596 C9.51112948,42.6370354 12.2377112,41.7485919 12.1821661,39.9358083 C12.1003101,37.0550977 -0.894316969,29.7830235 0.0489750485,27.1376357 C0.533289235,25.7855264 3.32418628,26.7367891 3.80167914,26.1185681 C4.46139886,25.2620328 1.21639637,20.4807911 2.7648375,19.1416445 C4.40293035,17.7267161 6.85081211,21.5307697 8.72862587,20.7689619 C10.2634243,20.1437609 9.36690714,16.5112137 10.6512655,16.4962568 C12.1656,16.4793055 16.0040579,22.3314657 16.8138468,21.4888902 C17.2328712,21.0531441 16.0586285,17.3647576 15.1416473,13.6823539 C14.2802112,10.2223104 13.658496,6.75528688 14.2422067,6.39332844 C15.4437346,5.6484718 18.6507326,10.4366935 20.8481742,10.074735 C23.0456159,9.70978517 24.2676078,-0.295424352 27.5252785,0.00670625285 C29.0707962,0.150293075 29.8737638,2.06478403 31.0168232,4.03611144 C32.3421095,6.31256085 33.856444,8.78544501 34.6496668,9.09455552 C36.1055328,9.65693724 39.3456629,4.88965533 41.1796253,5.87681473 C43.1227289,6.92380197 37.5029303,18.8115943 38.2513273,20.0699732 C38.7249222,20.8666807 42.6588787,17.1992339 44.0874594,17.5223043 C45.3786391,17.8144636 45.440031,20.7440336 46.2400752,20.9514368 C47.0362214,21.1618314 50.5345875,17.9510705 51.6718001,18.9452098 C53.0341164,20.1357839 51.0705488,24.1093497 51.8735164,25.1633169 C52.4572271,25.9291133 54.2395423,26.1923558 54.407152,27.1974635 C54.8534617,29.8568111 45.4507502,36.1556858 44.0874594,38.5936704 C43.4521015,39.7323937 45.9379878,44.769898 44.67117,45.7002209 C44.3242569,45.9534921 44.0397101,46.1010675 43.6002218,46.1010675 C42.2437523,46.0910962 40.5199056,45.8797045 38.8135995,45.6025021 C36.5440467,45.2295752 34.9108262,44.8018062 34.9546776,44.7349984 C35.2265562,44.3441232 41.2585578,45.3392596 42.1443558,44.4847186 C43.077903,43.5892952 41.330669,41.5372002 41.3131284,39.4402344 C41.3063071,38.5308512 43.2045848,36.1377375 45.3542772,33.9879236 C48.1656382,31.1740208 51.4652113,28.7150965 51.2693418,27.8934608 C51.1455834,27.3769471 49.6185808,26.8604333 49.4051707,26.2103041 C49.1927351,25.5601749 49.9070254,22.5917168 48.8731072,22.3105259 C48.0769609,22.0931514 46.559703,23.7543712 45.6904711,23.7473913 C44.8222137,23.7404114 44.7393833,23.6177643 44.4480152,22.8031085 C44.1556726,21.9844642 43.963701,20.8527208 42.923936,20.6243779 C41.8831964,20.396035 41.4193462,20.7579934 39.7715086,22.2686464 C38.123671,23.7792995 37.5467817,24.3656123 36.3423303,23.7264515 C35.7069725,23.3894214 35.2538415,22.0373121 35.7167172,20.2454682 C36.647341,16.6687604 38.4432989,11.8944986 37.5029303,11.2593263 C36.7165288,10.7248642 33.6225699,13.3383438 32.3830375,12.9943337 C31.1405816,12.6503236 28.7131638,3.78284024 27.4395247,3.78284024 C26.7018469,3.78284024 25.7955849,6.56882344 24.7275601,9.0417076 C23.9479799,10.8475113 23.0933652,12.5127196 22.5301185,12.7590109 C21.2019087,13.3383438 18.6302686,11.1356821 17.6928235,11.4029131 C16.3197879,11.7967797 18.0563027,15.2528348 18.9869266,18.5872399 C19.9175504,21.9176564 20.9504941,24.3975205 19.7392214,25.2410931 C19.0726804,25.7047589 16.8206681,24.4364086 14.8229939,23.0384313 C13.1849011,21.8897368 11.7563204,20.5615587 11.1726097,20.7899016 C10.5343285,21.0391843 10.4281107,22.9815949 9.56959799,23.333582 C8.38853402,23.8181876 7.36923293,22.3314657 6.41814511,23.2737542 C5.4670573,24.2150456 7.98315232,26.1574562 7.01842185,27.3589987 C6.23299482,28.3391782 4.70501767,26.8813731 4.12130701,28.1886115 C3.846505,28.7958641 6.07805326,31.0862733 8.71108532,32.8821057 C12.048663,35.1615465 16.020624,37.034158 16.2681407,38.003369 C16.7105524,39.735385 13.7725096,41.1024512 13.8407229,43.2383052 C13.8748295,44.327172 17.1568621,43.9831619 20.404788,43.206397 C23.5289556,42.4615404 26.6190165,41.2919061 27.0653262,41.871239 C27.5048145,42.4435921 26.4367896,44.2673441 25.3765606,46.4351063 C24.16139,48.9149703 22.6879835,51.3878545 22.3478916,51.6520941 L22.3478916,51.6550855 C22.313785,51.6830052 22.293321,51.6899851 22.2826018,51.6690454 C22.0906301,51.2761759 25.5792514,45.4020789 24.2052414,44.3690514 C22.9725302,43.4417199 20.4564352,44.3760314 17.339089,45.2475236"/>
  </g>
</svg>
